<?xml version="1.0" ?><svg height="512px" version="1.1" viewBox="0 0 512 512" width="512px" xmlns="http://www.w3.org/2000/svg" xmlns:xlink="http://www.w3.org/1999/xlink"><title/><desc/><defs/><g fill="none" fill-rule="evenodd" id="SVG" stroke="none" stroke-width="1"><g id="Banana"><g transform="translate(0.000000, 34.000000)"><path d="M14.2107579,375.390607 C14.2107579,375.390607 6.50266486,387.151724 54.9626658,394.651196 C103.422667,402.137871 231.724706,520.708878 437.299418,268.951851 C494.745803,198.589908 471.992228,141.448025 479.725887,98.1020995 C487.459546,54.7561737 509.54841,30.3892878 486.296302,20.1127072 C463.044193,9.84892437 448.164889,12.1269211 445.020294,22.1219515 C441.888482,32.1041842 451.808018,98.4220428 410.442531,109.22333 C353.187889,124.183882 281.143425,271.716162 105.493498,330.598537 C105.493498,330.598537 67.604961,345.879031 40.2878884,347.721905 C12.958033,349.564779 10.337537,367.212854 14.2107579,375.390607" fill="#FAD841" id="Fill-1"/><path d="M486.300136,20.1178263 C476.725739,15.894574 468.672507,13.8981275 462.166008,13.5781841 C460.376401,27.0797937 450.226772,46.5963384 445.458748,73.3052097 C437.686741,116.881495 460.568144,174.317726 402.81497,245.038005 C196.192059,498.087603 67.2253087,378.902305 18.5224324,371.377237 C16.5410818,371.070091 14.7898236,370.750148 12.9874337,370.430205 C13.1791773,372.260281 13.5498816,373.987975 14.2145927,375.395726 C14.2145927,375.395726 6.50649973,387.156843 54.9665007,394.643518 C103.426502,402.14299 231.728541,520.713998 437.29047,268.95697 C494.749638,198.595028 471.996063,141.453144 479.729722,98.1072186 C487.450598,54.7484951 509.552244,30.3816091 486.300136,20.1178263" fill="#FAAC28" id="Fill-3"/><path d="M26.8402701,374.011011 C29.8953849,375.725907 37.871919,379.066116 56.9184506,381.996797 C66.3011045,383.442941 76.6424763,387.74298 89.7321733,393.182017 C149.645659,418.07361 261.176524,464.401407 427.392665,260.853445 C466.176006,213.361053 465.639124,172.76664 465.178939,136.95858 C464.987195,122.548331 464.808235,108.918744 467.134724,95.8522578 C469.93418,80.1622356 474.484895,66.8525921 478.140807,56.166484 C480.889132,48.1423047 485.030794,36.0228504 483.701371,33.4249103 C483.701371,33.4249103 483.215621,32.7466304 481.14479,31.8379913 C467.121941,25.6438879 459.580026,25.9638313 457.227971,26.5653248 C457.074576,28.5617713 457.010661,32.1707324 456.95953,35.1781999 C456.537694,59.6730632 455.668456,110.646439 413.663823,121.601299 C395.639924,126.323663 372.950264,149.692326 344.227072,179.280687 C292.750304,232.327295 222.239789,304.954437 109.545679,342.746146 C108.638093,343.130078 70.1615424,358.53855 41.1443432,360.483806 C33.5640793,360.995715 28.1441267,363.05615 26.2906051,366.140404 C25.2424067,367.868098 25.613111,369.570197 25.7665059,369.902938 C26.3289538,371.195509 26.6996581,372.60326 26.8402701,374.011011 M183.839936,441.493463 C139.329853,441.506261 104.368602,426.980833 79.9276835,416.832229 C68.8960346,412.237843 59.347203,408.270545 53.006881,407.297917 C23.0693125,402.665138 7.49973162,395.626384 2.55274656,384.505153 C1.28723875,381.676854 0.878185721,378.899745 1.00601479,376.378592 C-1.05203326,368.815131 0.0600796636,360.330233 4.20174158,353.253086 C8.62462745,345.689625 18.326854,336.385672 39.4186508,334.939528 C64.3581026,333.263025 100.354769,318.878372 100.725473,318.737597 C208.229722,282.660784 276.234788,212.605987 325.896383,161.453443 C357.393466,128.985592 382.281786,103.35173 407.208455,96.8376833 C428.64539,91.2450735 430.933531,61.848678 431.393715,34.7430769 C431.534327,26.8980659 431.611025,22.1629042 432.825401,18.272393 C434.896232,11.6687622 439.625908,6.39609568 446.119624,3.45261681 C457.125707,-1.53849953 472.797552,0.176396857 491.460596,8.41813769 C517.550509,19.9233007 509.113791,44.61013 502.326067,64.4594158 C498.785202,74.8255805 494.758586,86.5866982 492.304268,100.344262 C490.399615,111.017573 490.565792,123.45697 490.744753,136.625839 C491.243287,174.814278 491.856866,222.345063 447.193389,277.055376 C339.970363,408.372927 251.026896,441.493463 183.839936,441.493463" fill="#454849" id="Fill-5"/><path d="M134.159167,364.549646 C129.761847,364.549646 125.811929,361.516583 124.814862,357.037376 C123.6644,351.879889 126.911259,346.7352 132.075553,345.583404 C132.816962,345.417033 207.060086,328.255272 263.573319,272.40596 C267.318711,268.707414 273.403375,268.720212 277.1232,272.495544 C280.843026,276.270875 280.804678,282.349799 277.03372,286.07394 C216.481089,345.916145 139.489639,363.602614 136.255564,364.319287 C135.539721,364.472859 134.849444,364.549646 134.159167,364.549646" fill="#FEFEFE" id="Fill-8"/><path d="M302.526672,246.8732 C307.422525,251.032464 308.036105,258.378363 303.88166,263.279895 C299.727215,268.194225 292.389826,268.795719 287.493973,264.649253 C282.585337,260.489989 281.98454,253.14409 286.138985,248.22976 C290.280647,243.328228 297.630818,242.713936 302.526672,246.8732" fill="#FEFEFE" id="Fill-10"/></g></g></g></svg>